<?xml version="1.0" encoding="UTF-8" standalone="no"?>
<svg
   version="1.1"
   viewBox="0 0 256 256"
   id="svg1"
   sodipodi:docname="geeko-hellcp.svg"
   inkscape:export-filename="geeko-hellcp-lg.png"
   inkscape:export-xdpi="112.5"
   inkscape:export-ydpi="112.5"
   inkscape:version="1.3.2 (091e20ef0f, 2023-11-25)"
   xmlns:inkscape="http://www.inkscape.org/namespaces/inkscape"
   xmlns:sodipodi="http://sodipodi.sourceforge.net/DTD/sodipodi-0.dtd"
   xmlns="http://www.w3.org/2000/svg"
   xmlns:svg="http://www.w3.org/2000/svg">
  <defs
     id="defs1" />
  <sodipodi:namedview
     id="namedview1"
     pagecolor="#ffffff"
     bordercolor="#666666"
     borderopacity="1.0"
     inkscape:showpageshadow="2"
     inkscape:pageopacity="0.0"
     inkscape:pagecheckerboard="0"
     inkscape:deskcolor="#d1d1d1"
     inkscape:zoom="4.5507812"
     inkscape:cx="128"
     inkscape:cy="128"
     inkscape:window-width="2560"
     inkscape:window-height="1371"
     inkscape:window-x="0"
     inkscape:window-y="0"
     inkscape:window-maximized="1"
     inkscape:current-layer="svg1" />
  <path
     d="m133.33 138.67c0-2.9451-2.3877-5.3333-5.3333-5.3333-14.728 0-26.667 11.939-26.667 26.667 0 11.782 9.5512 21.333 21.333 21.333 8.8366 0 16-7.1627 16-16 0-5.8912-4.7756-10.667-10.667-10.667-2.9455 0-5.3333 2.3883-5.3333 5.3333m37.333-58.667c8.8366 0 16-7.1637 16-16s-7.1634-16-16-16c-8.8366 0-16 7.1637-16 16s7.1634 16 16 16h37.333v-16c0-18.667-13.333-37.333-37.333-37.333h-37.333v21.333c-41.237 0-74.667 33.429-74.667 74.667 0 35.346 28.654 64 64 64 26.51 0 48-21.49 48-48 0-2.9451-2.3877-5.3333-5.3333-5.3333m-32-69.333c0 18.667 13.333 37.333 37.333 37.333h21.333c2.9455 0 5.3333-2.3872 5.3333-5.3333"
     fill="none"
     stroke="#73ba25"
     stroke-dashoffset="10"
     stroke-width="10.683"
     id="path1" />
</svg>
